<mxfile host="Electron" modified="2025-05-30T18:36:03.225Z" agent="Mozilla/5.0 (Windows NT 6.3; Win64; x64) AppleWebKit/537.36 (KHTML, like Gecko) draw.io/21.1.2 Chrome/106.0.5249.199 Electron/21.4.3 Safari/537.36" etag="jBm8eOjLOcI6O0OA3PHb" version="21.1.2" type="device">
  <diagram id="P2NHILHCe9OvJ9TAXp2J" name="CRM &amp; ERP">
    <mxGraphModel dx="1594" dy="1346" grid="1" gridSize="10" guides="1" tooltips="1" connect="1" arrows="1" fold="1" page="0" pageScale="1" pageWidth="850" pageHeight="1100" math="0" shadow="0">
      <root>
        <mxCell id="0" />
        <mxCell id="1" parent="0" />
        <mxCell id="RV8Bresn1WvAupgEZRU0-1" value="&lt;font style=&quot;font-size: 35px;&quot;&gt;&lt;b&gt;Integration Model&lt;/b&gt;&lt;/font&gt;&lt;font style=&quot;font-size: 20px;&quot;&gt; &lt;/font&gt;&lt;font style=&quot;font-size: 17px;&quot;&gt;(How to tables are related)&lt;/font&gt;" style="text;html=1;strokeColor=none;fillColor=none;align=left;verticalAlign=middle;whiteSpace=wrap;rounded=0;" parent="1" vertex="1">
          <mxGeometry x="1" y="-80" width="569" height="50" as="geometry" />
        </mxCell>
        <mxCell id="RV8Bresn1WvAupgEZRU0-2" value="crm_cust_info" style="swimlane;fontStyle=0;childLayout=stackLayout;horizontal=1;startSize=30;horizontalStack=0;resizeParent=1;resizeParentMax=0;resizeLast=0;collapsible=1;marginBottom=0;whiteSpace=wrap;html=1;rounded=1;fillColor=#d5e8d4;strokeColor=#82b366;fontSize=26;" parent="1" vertex="1">
          <mxGeometry x="493" y="360" width="207" height="110" as="geometry">
            <mxRectangle x="270" y="80" width="200" height="40" as="alternateBounds" />
          </mxGeometry>
        </mxCell>
        <mxCell id="RV8Bresn1WvAupgEZRU0-3" value="cst_id" style="text;strokeColor=none;fillColor=none;align=left;verticalAlign=middle;spacingLeft=4;spacingRight=4;overflow=hidden;points=[[0,0.5],[1,0.5]];portConstraint=eastwest;rotatable=0;whiteSpace=wrap;html=1;fontSize=26;" parent="RV8Bresn1WvAupgEZRU0-2" vertex="1">
          <mxGeometry y="30" width="207" height="40" as="geometry" />
        </mxCell>
        <mxCell id="RV8Bresn1WvAupgEZRU0-20" value="cst_key" style="text;strokeColor=none;fillColor=none;align=left;verticalAlign=middle;spacingLeft=4;spacingRight=4;overflow=hidden;points=[[0,0.5],[1,0.5]];portConstraint=eastwest;rotatable=0;whiteSpace=wrap;html=1;fontSize=26;" parent="RV8Bresn1WvAupgEZRU0-2" vertex="1">
          <mxGeometry y="70" width="207" height="40" as="geometry" />
        </mxCell>
        <mxCell id="RV8Bresn1WvAupgEZRU0-6" value="&lt;font style=&quot;font-size: 20px;&quot;&gt;Customer Information&lt;/font&gt;" style="text;html=1;strokeColor=none;fillColor=none;align=center;verticalAlign=middle;whiteSpace=wrap;rounded=0;" parent="1" vertex="1">
          <mxGeometry x="478" y="327" width="228" height="30" as="geometry" />
        </mxCell>
        <mxCell id="RV8Bresn1WvAupgEZRU0-7" value="crm_prd_info" style="swimlane;fontStyle=0;childLayout=stackLayout;horizontal=1;startSize=30;horizontalStack=0;resizeParent=1;resizeParentMax=0;resizeLast=0;collapsible=1;marginBottom=0;whiteSpace=wrap;html=1;rounded=1;fillColor=#d5e8d4;strokeColor=#82b366;fontSize=26;" parent="1" vertex="1">
          <mxGeometry x="490" y="190" width="210" height="70" as="geometry">
            <mxRectangle x="270" y="80" width="200" height="40" as="alternateBounds" />
          </mxGeometry>
        </mxCell>
        <mxCell id="RV8Bresn1WvAupgEZRU0-8" value="prd_key" style="text;strokeColor=none;fillColor=none;align=left;verticalAlign=middle;spacingLeft=4;spacingRight=4;overflow=hidden;points=[[0,0.5],[1,0.5]];portConstraint=eastwest;rotatable=0;whiteSpace=wrap;html=1;fontSize=26;" parent="RV8Bresn1WvAupgEZRU0-7" vertex="1">
          <mxGeometry y="30" width="210" height="40" as="geometry" />
        </mxCell>
        <mxCell id="RV8Bresn1WvAupgEZRU0-9" value="&lt;font style=&quot;font-size: 20px;&quot;&gt;Current &amp;amp; History Product Information&lt;/font&gt;" style="text;html=1;strokeColor=none;fillColor=none;align=center;verticalAlign=middle;whiteSpace=wrap;rounded=0;" parent="1" vertex="1">
          <mxGeometry x="429" y="156" width="342" height="30" as="geometry" />
        </mxCell>
        <mxCell id="RV8Bresn1WvAupgEZRU0-10" value="crm_sales_details" style="swimlane;fontStyle=0;childLayout=stackLayout;horizontal=1;startSize=30;horizontalStack=0;resizeParent=1;resizeParentMax=0;resizeLast=0;collapsible=1;marginBottom=0;whiteSpace=wrap;html=1;rounded=1;fillColor=#d5e8d4;strokeColor=#82b366;fontSize=26;" parent="1" vertex="1">
          <mxGeometry x="77" y="250" width="233" height="110" as="geometry">
            <mxRectangle x="270" y="80" width="200" height="40" as="alternateBounds" />
          </mxGeometry>
        </mxCell>
        <mxCell id="RV8Bresn1WvAupgEZRU0-11" value="prd_key" style="text;strokeColor=none;fillColor=none;align=left;verticalAlign=middle;spacingLeft=4;spacingRight=4;overflow=hidden;points=[[0,0.5],[1,0.5]];portConstraint=eastwest;rotatable=0;whiteSpace=wrap;html=1;fontSize=26;" parent="RV8Bresn1WvAupgEZRU0-10" vertex="1">
          <mxGeometry y="30" width="233" height="40" as="geometry" />
        </mxCell>
        <mxCell id="RV8Bresn1WvAupgEZRU0-13" value="cst_id" style="text;strokeColor=none;fillColor=none;align=left;verticalAlign=middle;spacingLeft=4;spacingRight=4;overflow=hidden;points=[[0,0.5],[1,0.5]];portConstraint=eastwest;rotatable=0;whiteSpace=wrap;html=1;fontSize=26;" parent="RV8Bresn1WvAupgEZRU0-10" vertex="1">
          <mxGeometry y="70" width="233" height="40" as="geometry" />
        </mxCell>
        <mxCell id="RV8Bresn1WvAupgEZRU0-12" value="&lt;font style=&quot;font-size: 20px;&quot;&gt;Transactional Records about Sales &amp;amp; Orders&lt;/font&gt;" style="text;html=1;strokeColor=none;fillColor=none;align=center;verticalAlign=middle;whiteSpace=wrap;rounded=0;" parent="1" vertex="1">
          <mxGeometry x="40" y="200" width="300" height="46" as="geometry" />
        </mxCell>
        <mxCell id="RV8Bresn1WvAupgEZRU0-14" style="edgeStyle=elbowEdgeStyle;rounded=0;orthogonalLoop=1;jettySize=auto;html=1;entryX=0;entryY=0.5;entryDx=0;entryDy=0;" parent="1" source="RV8Bresn1WvAupgEZRU0-13" target="RV8Bresn1WvAupgEZRU0-3" edge="1">
          <mxGeometry relative="1" as="geometry">
            <Array as="points">
              <mxPoint x="430" y="370" />
            </Array>
          </mxGeometry>
        </mxCell>
        <mxCell id="RV8Bresn1WvAupgEZRU0-16" style="edgeStyle=orthogonalEdgeStyle;rounded=0;orthogonalLoop=1;jettySize=auto;html=1;entryX=0;entryY=0.5;entryDx=0;entryDy=0;" parent="1" source="RV8Bresn1WvAupgEZRU0-11" target="RV8Bresn1WvAupgEZRU0-8" edge="1">
          <mxGeometry relative="1" as="geometry">
            <Array as="points">
              <mxPoint x="430" y="300" />
              <mxPoint x="430" y="240" />
            </Array>
          </mxGeometry>
        </mxCell>
        <mxCell id="RV8Bresn1WvAupgEZRU0-17" value="erp_cust_az12" style="swimlane;fontStyle=0;childLayout=stackLayout;horizontal=1;startSize=30;horizontalStack=0;resizeParent=1;resizeParentMax=0;resizeLast=0;collapsible=1;marginBottom=0;whiteSpace=wrap;html=1;rounded=1;fillColor=#ffff88;strokeColor=#36393d;fontSize=26;" parent="1" vertex="1">
          <mxGeometry x="1090" y="330" width="230" height="70" as="geometry">
            <mxRectangle x="270" y="80" width="200" height="40" as="alternateBounds" />
          </mxGeometry>
        </mxCell>
        <mxCell id="RV8Bresn1WvAupgEZRU0-18" value="cid" style="text;strokeColor=none;fillColor=none;align=left;verticalAlign=middle;spacingLeft=4;spacingRight=4;overflow=hidden;points=[[0,0.5],[1,0.5]];portConstraint=eastwest;rotatable=0;whiteSpace=wrap;html=1;fontSize=26;" parent="RV8Bresn1WvAupgEZRU0-17" vertex="1">
          <mxGeometry y="30" width="230" height="40" as="geometry" />
        </mxCell>
        <mxCell id="RV8Bresn1WvAupgEZRU0-19" value="&lt;font style=&quot;font-size: 20px;&quot;&gt;Extra Customer Information(Birthdate)&lt;/font&gt;" style="text;html=1;strokeColor=none;fillColor=none;align=center;verticalAlign=middle;whiteSpace=wrap;rounded=0;" parent="1" vertex="1">
          <mxGeometry x="1058" y="296" width="352" height="30" as="geometry" />
        </mxCell>
        <mxCell id="RV8Bresn1WvAupgEZRU0-21" style="edgeStyle=orthogonalEdgeStyle;rounded=0;orthogonalLoop=1;jettySize=auto;html=1;exitX=0;exitY=0.5;exitDx=0;exitDy=0;" parent="1" source="RV8Bresn1WvAupgEZRU0-18" target="RV8Bresn1WvAupgEZRU0-20" edge="1">
          <mxGeometry relative="1" as="geometry" />
        </mxCell>
        <mxCell id="RV8Bresn1WvAupgEZRU0-22" value="erp_loc_a101" style="swimlane;fontStyle=0;childLayout=stackLayout;horizontal=1;startSize=30;horizontalStack=0;resizeParent=1;resizeParentMax=0;resizeLast=0;collapsible=1;marginBottom=0;whiteSpace=wrap;html=1;rounded=1;fillColor=#ffff88;strokeColor=#36393d;fontSize=26;" parent="1" vertex="1">
          <mxGeometry x="1090" y="481" width="230" height="70" as="geometry">
            <mxRectangle x="270" y="80" width="200" height="40" as="alternateBounds" />
          </mxGeometry>
        </mxCell>
        <mxCell id="RV8Bresn1WvAupgEZRU0-23" value="cid" style="text;strokeColor=none;fillColor=none;align=left;verticalAlign=middle;spacingLeft=4;spacingRight=4;overflow=hidden;points=[[0,0.5],[1,0.5]];portConstraint=eastwest;rotatable=0;whiteSpace=wrap;html=1;fontSize=26;" parent="RV8Bresn1WvAupgEZRU0-22" vertex="1">
          <mxGeometry y="30" width="230" height="40" as="geometry" />
        </mxCell>
        <mxCell id="RV8Bresn1WvAupgEZRU0-24" value="&lt;font style=&quot;font-size: 20px;&quot;&gt;Location of Customers(Country)&lt;/font&gt;" style="text;html=1;strokeColor=none;fillColor=none;align=center;verticalAlign=middle;whiteSpace=wrap;rounded=0;" parent="1" vertex="1">
          <mxGeometry x="1037" y="447" width="352" height="30" as="geometry" />
        </mxCell>
        <mxCell id="RV8Bresn1WvAupgEZRU0-25" style="edgeStyle=orthogonalEdgeStyle;rounded=0;orthogonalLoop=1;jettySize=auto;html=1;entryX=1;entryY=0.5;entryDx=0;entryDy=0;" parent="1" source="RV8Bresn1WvAupgEZRU0-23" target="RV8Bresn1WvAupgEZRU0-20" edge="1">
          <mxGeometry relative="1" as="geometry" />
        </mxCell>
        <mxCell id="RV8Bresn1WvAupgEZRU0-26" value="erp_px_cat_g1v2" style="swimlane;fontStyle=0;childLayout=stackLayout;horizontal=1;startSize=30;horizontalStack=0;resizeParent=1;resizeParentMax=0;resizeLast=0;collapsible=1;marginBottom=0;whiteSpace=wrap;html=1;rounded=1;fillColor=#ffff88;strokeColor=#36393d;fontSize=26;" parent="1" vertex="1">
          <mxGeometry x="1080" y="196" width="240" height="70" as="geometry">
            <mxRectangle x="270" y="80" width="200" height="40" as="alternateBounds" />
          </mxGeometry>
        </mxCell>
        <mxCell id="RV8Bresn1WvAupgEZRU0-27" value="id" style="text;strokeColor=none;fillColor=none;align=left;verticalAlign=middle;spacingLeft=4;spacingRight=4;overflow=hidden;points=[[0,0.5],[1,0.5]];portConstraint=eastwest;rotatable=0;whiteSpace=wrap;html=1;fontSize=26;" parent="RV8Bresn1WvAupgEZRU0-26" vertex="1">
          <mxGeometry y="30" width="240" height="40" as="geometry" />
        </mxCell>
        <mxCell id="RV8Bresn1WvAupgEZRU0-28" value="&lt;span style=&quot;font-size: 20px;&quot;&gt;Product category information&lt;/span&gt;" style="text;html=1;strokeColor=none;fillColor=none;align=center;verticalAlign=middle;whiteSpace=wrap;rounded=0;" parent="1" vertex="1">
          <mxGeometry x="1036" y="162" width="352" height="30" as="geometry" />
        </mxCell>
        <mxCell id="RV8Bresn1WvAupgEZRU0-29" style="edgeStyle=orthogonalEdgeStyle;rounded=0;orthogonalLoop=1;jettySize=auto;html=1;entryX=1;entryY=0.5;entryDx=0;entryDy=0;" parent="1" source="RV8Bresn1WvAupgEZRU0-27" target="RV8Bresn1WvAupgEZRU0-8" edge="1">
          <mxGeometry relative="1" as="geometry" />
        </mxCell>
        <mxCell id="RV8Bresn1WvAupgEZRU0-30" value="" style="rounded=1;whiteSpace=wrap;html=1;fillColor=none;dashed=1;" parent="1" vertex="1">
          <mxGeometry x="50" y="120" width="730" height="470" as="geometry" />
        </mxCell>
        <mxCell id="RV8Bresn1WvAupgEZRU0-31" value="&lt;font style=&quot;font-size: 35px;&quot;&gt;CRM&lt;/font&gt;" style="rounded=1;whiteSpace=wrap;html=1;fillColor=#cce5ff;strokeColor=#36393d;" parent="1" vertex="1">
          <mxGeometry x="310" y="80" width="170" height="60" as="geometry" />
        </mxCell>
        <mxCell id="RV8Bresn1WvAupgEZRU0-43" value="" style="rounded=1;whiteSpace=wrap;html=1;fillColor=none;dashed=1;" parent="1" vertex="1">
          <mxGeometry x="873.5" y="120" width="577" height="470" as="geometry" />
        </mxCell>
        <mxCell id="RV8Bresn1WvAupgEZRU0-44" value="&lt;font style=&quot;font-size: 35px;&quot;&gt;ERP&lt;/font&gt;" style="rounded=1;whiteSpace=wrap;html=1;fillColor=#ffff88;strokeColor=#36393d;" parent="1" vertex="1">
          <mxGeometry x="1077" y="81" width="170" height="60" as="geometry" />
        </mxCell>
        <mxCell id="12vJWSo4gV31JH_gFU09-1" value="PRODUCT" style="text;html=1;strokeColor=#36393d;fillColor=#ffcc99;align=center;verticalAlign=middle;whiteSpace=wrap;overflow=hidden;fontSize=20;fontStyle=1;rounded=0;" parent="1" vertex="1">
          <mxGeometry x="493" y="256" width="204" height="41" as="geometry" />
        </mxCell>
        <mxCell id="12vJWSo4gV31JH_gFU09-2" value="PRODUCT" style="text;html=1;strokeColor=#36393d;fillColor=#ffcc99;align=center;verticalAlign=middle;whiteSpace=wrap;overflow=hidden;fontSize=20;fontStyle=1;rounded=0;" parent="1" vertex="1">
          <mxGeometry x="1082" y="260" width="238" height="41" as="geometry" />
        </mxCell>
        <mxCell id="12vJWSo4gV31JH_gFU09-4" value="CUSTOMER" style="text;html=1;strokeColor=#36393d;fillColor=#cdeb8b;align=center;verticalAlign=middle;whiteSpace=wrap;overflow=hidden;fontSize=20;fontStyle=1;rounded=0;" parent="1" vertex="1">
          <mxGeometry x="1090" y="393" width="230" height="41" as="geometry" />
        </mxCell>
        <mxCell id="12vJWSo4gV31JH_gFU09-6" value="CUSTOMER" style="text;html=1;strokeColor=#36393d;fillColor=#cdeb8b;align=center;verticalAlign=middle;whiteSpace=wrap;overflow=hidden;fontSize=20;fontStyle=1;rounded=0;" parent="1" vertex="1">
          <mxGeometry x="1090" y="546" width="230" height="41" as="geometry" />
        </mxCell>
        <mxCell id="12vJWSo4gV31JH_gFU09-7" value="CUSTOMER" style="text;html=1;strokeColor=#36393d;fillColor=#cdeb8b;align=center;verticalAlign=middle;whiteSpace=wrap;overflow=hidden;fontSize=20;fontStyle=1;rounded=0;" parent="1" vertex="1">
          <mxGeometry x="490" y="465" width="209" height="41" as="geometry" />
        </mxCell>
        <mxCell id="12vJWSo4gV31JH_gFU09-8" value="SALES" style="text;html=1;strokeColor=#9673a6;fillColor=#e1d5e7;align=center;verticalAlign=middle;whiteSpace=wrap;overflow=hidden;fontSize=20;fontStyle=1;rounded=0;" parent="1" vertex="1">
          <mxGeometry x="78" y="356" width="231" height="41" as="geometry" />
        </mxCell>
      </root>
    </mxGraphModel>
  </diagram>
</mxfile>
